<?xml version="1.0" encoding="UTF-8"?>
<svg width="1200pt" height="1200pt" version="1.1" viewBox="0 0 1200 1200" xmlns="http://www.w3.org/2000/svg">
  <style>
    @media (prefers-color-scheme: dark) {
      path { fill: white; }
    }
  </style>
  <path d="m837.98 513.98c2.4844 0.98438 5.0156 1.5 8.0156 1.5 4.5 0 9-0.98438 12.516-3.5156l299.02-176.48 0.98438-0.98438c0.51562 0 0.98438-0.98438 2.0156-1.5 3.5156-3 6-6 7.5-9.9844l0.98438-0.98438v-0.98438c0.51562-1.5 0.51562-3.5156 0.51562-5.4844v-4.5c0-1.5-0.98438-3-0.98438-3.9844-0.51562-1.5-0.98438-3.5156-2.0156-5.0156v-0.98438c-0.51562-0.98438-1.5-1.5-2.4844-2.4844-0.98438-1.5-2.0156-3-3.5156-3.9844s-3-1.5-4.5-2.4844c-0.98438-0.51562-2.0156-1.5-3.5156-2.0156l-700.03-232.13c-6.9844-2.0156-14.484-1.5-20.484 2.0156l-299.02 176.48-2.4844 2.4844c-1.5 0.98438-3 2.0156-3.9844 3.5156s-2.0156 3-2.4844 4.5c-0.51562 0.98438-1.5 2.0156-2.0156 3v0.98438c-0.51562 1.5-0.51562 3.5156-0.51562 5.4844v4.5c0 1.5 0.98438 3 0.98438 3.9844 0.51562 1.5 0.98438 3.5156 2.0156 5.0156v0.98438c0.51562 0.98438 1.5 1.5 2.4844 2.4844 0.98438 1.5 2.0156 3 3.5156 3.9844s3 2.0156 5.0156 3c0.98438 0.51562 2.0156 1.5 3 1.5l255.52 84.516v27.516c-40.5-15.516-90.516-23.484-139.5-23.484h-6.5156l-93.516-30.984c-12.984-4.5-27 3-31.5 15.984-3.9844 12.516 2.4844 25.5 14.016 30.516-56.016 15.984-97.5 45-104.02 84.516-1.5 3-2.0156 6.5156-2.0156 9.9844v453.98c0 71.484 114.98 110.02 223.5 110.02 7.5 0 14.484-0.51562 21.984-0.98438 10.5 65.016 118.5 100.5 221.48 100.5 108.52 0 223.5-38.484 223.5-110.02v-137.02l117.52 39c2.4844 0.98438 5.0156 1.5 8.0156 1.5 4.5 0 9-0.98438 12.516-3.5156l299.02-176.48c12-6.9844 15.984-22.5 9-33.984-6.9844-12-22.5-15.984-33.984-9l-289.5 171-122.48-40.5v-36.984c0-3.5156-0.51562-6.9844-2.0156-9.9844 0-2.4844-0.98438-4.5-1.5-6.9844l120.52 39.984c2.4844 0.98438 5.0156 1.5 8.0156 1.5 4.5 0 9-0.98438 12.516-3.5156l299.02-176.48c12-6.9844 15.984-22.5 9-33.984-6.9844-12-22.5-15.984-34.5-9l-288.98 171-264-87.984v-53.016l258.98 86.016c2.4844 0.98438 5.0156 1.5 8.0156 1.5 4.5 0 9-0.98438 12.516-3.5156l299.02-176.48c12-6.9844 15.984-22.5 9-33.984-6.9844-12-22.5-15.984-34.5-9l-288.98 171-264-87.516v-53.016l258.98 86.016c2.4844 0.98438 5.0156 1.5 8.0156 1.5 4.5 0 9-0.98438 12.516-3.5156l299.02-176.48c12-6.9844 15.984-22.5 9-33.984-6.9844-12-22.5-15.984-33.984-9l-288.98 170.48-264-87.516v-52.5l259.5 86.016zm-45-290.48-242.02 143.02-72.516-24 242.02-143.02zm50.016 239.48-228.98-75.984 242.02-143.02 228.98 75.984zm-395.02-354 209.48 69.516-242.02 143.02-209.48-69.516zm-20.484 485.02c0 24-69 60-173.48 60s-173.48-36-173.48-60v-42.984c43.5 26.016 109.5 39.516 173.48 39.516s129.98-14.016 173.48-39.516zm-347.02 183.98c43.5 26.016 109.5 39.516 173.48 39.516 6.9844 0 12.984-0.98438 20.016-0.98438v63.516c-6.5156 0-12.984 0.98438-20.016 0.98438-104.48 0-173.48-36-173.48-60zm243.52 99.516c43.5 26.016 109.5 39.516 173.48 39.516s129.98-14.016 173.48-39.516v42.984c0 24-69 60-173.48 60s-173.48-36-173.48-60zm347.02-70.5c0 24-69 60-173.48 60s-173.48-36-173.48-60 69-60 173.48-60 173.48 36 173.48 60zm-381.52-41.016c-11.484 0.98438-23.016 2.0156-35.484 2.0156-104.48 0-173.48-36-173.48-60v-42.984c43.5 26.016 109.5 39.516 173.48 39.516s129.98-14.016 173.48-39.516v38.016c-60 9.5156-113.02 30.984-138 63.516zm-35.484-345c104.48 0 173.48 36 173.48 60s-69 60-173.48 60-173.48-36-173.48-60 69-60 173.48-60zm-173.48 513.98v-42.984c43.5 26.016 109.5 39.516 173.48 39.516 6.9844 0 12.984-0.51562 20.016-0.98438v63.516c-6.5156 0-12.984 0.98438-20.016 0.98438-104.48 0-173.48-36-173.48-60zm417 159.52c-104.48 0-173.48-36-173.48-60v-42.984c43.5 26.016 109.5 39.516 173.48 39.516s129.98-14.016 173.48-39.516v42.984c0 24-69 60-173.48 60zm31.5-395.48c-10.5-0.51562-21-1.5-31.5-1.5-6.5156 0-12.984 0.51562-20.016 0.98438v-216.98c0-3.5156-0.51562-6.9844-2.0156-9.9844-3-18.984-14.484-36-32.016-49.5v-38.016l85.5 28.5v286.5z"/>
</svg>
