<?xml version="1.0" encoding="UTF-8" standalone="no"?>
<!DOCTYPE svg PUBLIC "-//W3C//DTD SVG 1.1//EN" "http://www.w3.org/Graphics/SVG/1.1/DTD/svg11.dtd">
<svg width="100%" height="100%" viewBox="0 0 2375 600" version="1.1" xmlns="http://www.w3.org/2000/svg" xmlns:xlink="http://www.w3.org/1999/xlink" xml:space="preserve" xmlns:serif="http://www.serif.com/" style="fill-rule:evenodd;clip-rule:evenodd;stroke-linejoin:round;stroke-miterlimit:2;">
    <g transform="matrix(0.5,0,0,0.5,0,0)">
        <path d="M837.98,513.98C840.464,514.964 842.996,515.48 845.996,515.48C850.496,515.48 854.996,514.496 858.512,511.964L1157.53,335.484L1158.52,334.5C1159.03,334.5 1159.5,333.516 1160.53,333C1164.05,330 1166.53,327 1168.03,323.016L1169.02,322.031L1169.02,321.047C1169.53,319.547 1169.53,317.531 1169.53,315.562L1169.53,311.062C1169.53,309.562 1168.55,308.062 1168.55,307.078C1168.03,305.578 1167.56,303.562 1166.53,302.062L1166.53,301.078C1166.02,300.094 1165.03,299.578 1164.05,298.594C1163.06,297.094 1162.03,295.594 1160.53,294.609C1159.03,293.625 1157.53,293.109 1156.03,292.125C1155.05,291.609 1154.02,290.625 1152.52,290.109L452.486,57.979C445.502,55.964 438.002,56.479 432.002,59.995L132.982,236.475L130.498,238.959C128.998,239.944 127.498,240.975 126.513,242.475C125.529,243.975 124.498,245.475 124.029,246.975C123.513,247.959 122.529,248.99 122.013,249.975L122.013,250.959C121.498,252.459 121.498,254.475 121.498,256.444L121.498,260.944C121.498,262.444 122.482,263.944 122.482,264.928C122.998,266.428 123.466,268.444 124.498,269.944L124.498,270.928C125.013,271.912 125.998,272.428 126.982,273.412C127.966,274.912 128.998,276.412 130.498,277.397C131.998,278.381 133.498,279.412 135.513,280.397C136.498,280.912 137.529,281.897 138.513,281.897L394.033,366.413L394.033,393.929C353.533,378.413 303.517,370.445 254.533,370.445L248.018,370.445L154.502,339.461C141.518,334.961 127.502,342.461 123.002,355.445C119.017,367.961 125.486,380.945 137.018,385.961C81.002,401.945 39.518,430.961 32.998,470.477C31.498,473.477 30.982,476.992 30.982,480.461L30.982,934.441C30.982,1005.93 145.962,1044.46 254.482,1044.46C261.982,1044.46 268.966,1043.95 276.466,1043.48C286.966,1108.49 394.966,1143.98 497.946,1143.98C606.466,1143.98 721.446,1105.49 721.446,1033.96L721.446,896.937L838.966,935.937C841.45,936.921 843.982,937.437 846.982,937.437C851.482,937.437 855.982,936.452 859.498,933.921L1158.52,757.441C1170.52,750.457 1174.5,734.941 1167.52,723.457C1160.53,711.457 1145.02,707.473 1133.53,714.457L844.034,885.457L721.554,844.957L721.554,807.973C721.554,804.458 721.038,800.989 719.538,797.989C719.538,795.504 718.554,793.489 718.038,791.004L838.558,830.988C841.042,831.973 843.574,832.488 846.574,832.488C851.074,832.488 855.574,831.504 859.09,828.973L1158.11,652.493C1170.11,645.508 1174.09,629.993 1167.11,618.509C1160.12,606.509 1144.61,602.525 1132.61,609.509L843.63,780.509L579.63,692.525L579.63,639.509L838.61,725.525C841.094,726.509 843.625,727.025 846.625,727.025C851.125,727.025 855.625,726.04 859.141,723.509L1158.16,547.029C1170.16,540.045 1174.14,524.529 1167.16,513.045C1160.18,501.045 1144.66,497.061 1132.66,504.045L843.681,675.045L579.681,587.529L579.681,534.513L838.661,620.529C841.146,621.514 843.677,622.029 846.677,622.029C851.177,622.029 855.677,621.045 859.193,618.514L1158.21,442.034C1170.21,435.049 1174.2,419.534 1167.21,408.05C1160.23,396.05 1144.71,392.066 1133.23,399.05L844.249,569.53L580.249,482.014L580.249,429.514L839.749,515.53L837.98,513.98ZM792.98,223.5L550.96,366.52L478.444,342.52L720.464,199.5L792.98,223.5ZM842.996,462.98L614.016,386.996L856.036,243.976L1085.02,319.96L842.996,462.98ZM447.976,108.98L657.456,178.496L415.436,321.516L205.956,252L447.976,108.98ZM427.492,594C427.492,618 358.492,654 254.012,654C149.532,654 80.532,618 80.532,594L80.532,551.016C124.032,577.032 190.032,590.532 254.012,590.532C317.992,590.532 383.992,576.516 427.492,551.016L427.492,594ZM80.472,777.98C123.972,803.996 189.972,817.496 253.952,817.496C260.936,817.496 266.936,816.512 273.968,816.512L273.968,880.028C267.452,880.028 260.984,881.012 253.952,881.012C149.472,881.012 80.472,845.012 80.472,821.012L80.472,777.98ZM323.992,877.496C367.492,903.512 433.492,917.012 497.472,917.012C561.452,917.012 627.452,902.996 670.952,877.496L670.952,920.48C670.952,944.48 601.952,980.48 497.472,980.48C392.992,980.48 323.992,944.48 323.992,920.48L323.992,877.496ZM671.012,806.996C671.012,830.996 602.012,866.996 497.532,866.996C393.052,866.996 324.052,830.996 324.052,806.996C324.052,782.996 393.052,746.996 497.532,746.996C602.012,746.996 671.012,782.996 671.012,806.996ZM289.492,765.98C278.008,766.964 266.476,767.996 254.008,767.996C149.528,767.996 80.528,731.996 80.528,707.996L80.528,665.012C124.028,691.028 190.028,704.528 254.008,704.528C317.988,704.528 383.988,690.512 427.488,665.012L427.488,703.028C367.488,712.543 314.468,734.012 289.488,766.544L289.492,765.98ZM254.008,420.98C358.488,420.98 427.488,456.98 427.488,480.98C427.488,504.98 358.488,540.98 254.008,540.98C149.528,540.98 80.528,504.98 80.528,480.98C80.528,456.98 149.528,420.98 254.008,420.98ZM80.528,935.008L80.528,891.976C124.028,917.992 190.028,931.492 254.008,931.492C260.992,931.492 266.992,930.976 274.024,930.508L274.024,994.024C267.508,994.024 261.04,995.008 254.008,995.008C149.528,995.008 80.528,959.008 80.528,935.008ZM497.528,1094.48C393.048,1094.48 324.048,1058.48 324.048,1034.48L324.048,991.496C367.548,1017.51 433.548,1031.01 497.528,1031.01C561.508,1031.01 627.508,1017 671.008,991.496L671.008,1034.48C671.008,1058.48 602.008,1094.48 497.528,1094.48ZM529.028,699C518.528,698.484 508.028,697.5 497.528,697.5C491.012,697.5 484.544,698.016 477.512,698.484L477.512,481.504C477.512,477.989 476.996,474.52 475.496,471.52C472.496,452.536 461.012,435.52 443.48,422.02L443.48,384.004L528.98,412.504L528.98,699.004L529.028,699Z" style="fill-rule:nonzero;"/>
    </g>
    <g transform="matrix(1,0,0,1,-74,159)">
        <g transform="matrix(288,0,0,288,2425.76,209.936)">
        </g>
        <text x="738.82px" y="209.936px" style="font-family:'SFPro-Semibold', 'SF Pro';font-size:288px;">Scr<tspan x="1139.88px " y="209.936px ">a</tspan>pp<tspan x="1595.23px " y="209.936px ">y</tspan> Cash</text>
    </g>
</svg>
